<?xml version="1.0" encoding="UTF-8" standalone="no"?>
<!DOCTYPE svg PUBLIC "-//W3C//DTD SVG 1.1//EN"
 "http://www.w3.org/Graphics/SVG/1.1/DTD/svg11.dtd">
<!-- Generated by graphviz version 2.42.3 ()
 -->
<!-- Title: classes Pages: 1 -->
<svg width="751pt" height="681pt"
 viewBox="0.00 0.00 750.50 681.00" xmlns="http://www.w3.org/2000/svg" xmlns:xlink="http://www.w3.org/1999/xlink">
<g id="graph0" class="graph" transform="scale(1 1) rotate(0) translate(4 677)">
<title>classes</title>
<!-- Vector -->
<g id="node1" class="node">
<title>Vector</title>
<polygon fill="white" stroke="black" points="380,-580.5 380,-672.5 458,-672.5 458,-580.5 380,-580.5"/>
<text text-anchor="middle" x="419" y="-657.3" font-family="Times,serif" font-size="14.00">Vector&lt;U&gt;</text>
<polyline fill="none" stroke="black" points="380,-649.5 458,-649.5 "/>
<text text-anchor="start" x="388" y="-634.3" font-family="Times,serif" font-size="14.00">U x</text>
<polyline fill="none" stroke="black" points="380,-626.5 458,-626.5 "/>
<text text-anchor="start" x="388" y="-611.3" font-family="Times,serif" font-size="14.00">U y</text>
<polyline fill="none" stroke="black" points="380,-603.5 458,-603.5 "/>
<text text-anchor="start" x="388" y="-588.3" font-family="Times,serif" font-size="14.00">U z</text>
</g>
<!-- Element -->
<g id="node2" class="node">
<title>Element</title>
<polygon fill="white" stroke="black" points="356.5,-451.5 356.5,-520.5 481.5,-520.5 481.5,-451.5 356.5,-451.5"/>
<text text-anchor="middle" x="419" y="-505.3" font-family="Times,serif" font-size="14.00">Node&lt;T,U&gt;</text>
<polyline fill="none" stroke="black" points="356.5,-497.5 481.5,-497.5 "/>
<text text-anchor="start" x="364.5" y="-482.3" font-family="Times,serif" font-size="14.00">Vector&lt;U&gt; position</text>
<polyline fill="none" stroke="black" points="356.5,-474.5 481.5,-474.5 "/>
<text text-anchor="start" x="364.5" y="-459.3" font-family="Times,serif" font-size="14.00">T * data</text>
</g>
<!-- Vector&#45;&#45;Element -->
<g id="edge1" class="edge">
<title>Vector&#45;&#45;Element</title>
<path fill="none" stroke="black" d="M419,-580.14C419,-560.74 419,-538.48 419,-520.58"/>
</g>
<!-- Sphere -->
<g id="node3" class="node">
<title>Sphere</title>
<polygon fill="white" stroke="black" points="499.5,-428.5 499.5,-543.5 742.5,-543.5 742.5,-428.5 499.5,-428.5"/>
<text text-anchor="middle" x="621" y="-528.3" font-family="Times,serif" font-size="14.00">Sphere&lt;U&gt;</text>
<polyline fill="none" stroke="black" points="499.5,-520.5 742.5,-520.5 "/>
<text text-anchor="start" x="507.5" y="-505.3" font-family="Times,serif" font-size="14.00">Vector&lt;U&gt; position</text>
<polyline fill="none" stroke="black" points="499.5,-497.5 742.5,-497.5 "/>
<text text-anchor="start" x="507.5" y="-482.3" font-family="Times,serif" font-size="14.00">U radius</text>
<polyline fill="none" stroke="black" points="499.5,-474.5 742.5,-474.5 "/>
<text text-anchor="start" x="507.5" y="-459.3" font-family="Times,serif" font-size="14.00">bool contains(const Vector&lt;U&gt; &amp;v)</text>
<polyline fill="none" stroke="black" points="499.5,-451.5 742.5,-451.5 "/>
<text text-anchor="start" x="507.5" y="-436.3" font-family="Times,serif" font-size="14.00">bool intersects(const Sphere&lt;U&gt; &amp;other)</text>
</g>
<!-- Vector&#45;&#45;Sphere -->
<g id="edge3" class="edge">
<title>Vector&#45;&#45;Sphere</title>
<path fill="none" stroke="black" d="M458.42,-598.46C481.16,-582.88 510.62,-562.68 538.22,-543.76"/>
</g>
<!-- Cuboid -->
<g id="node4" class="node">
<title>Cuboid</title>
<polygon fill="white" stroke="black" points="93.5,-428.5 93.5,-543.5 338.5,-543.5 338.5,-428.5 93.5,-428.5"/>
<text text-anchor="middle" x="216" y="-528.3" font-family="Times,serif" font-size="14.00">Cuboid&lt;U&gt;</text>
<polyline fill="none" stroke="black" points="93.5,-520.5 338.5,-520.5 "/>
<text text-anchor="start" x="101.5" y="-505.3" font-family="Times,serif" font-size="14.00">Vector&lt;U&gt; position</text>
<polyline fill="none" stroke="black" points="93.5,-497.5 338.5,-497.5 "/>
<text text-anchor="start" x="101.5" y="-482.3" font-family="Times,serif" font-size="14.00">Vector&lt;U&gt; dimensions</text>
<polyline fill="none" stroke="black" points="93.5,-474.5 338.5,-474.5 "/>
<text text-anchor="start" x="101.5" y="-459.3" font-family="Times,serif" font-size="14.00">bool contains(const Vector&lt;U&gt; &amp;v)</text>
<polyline fill="none" stroke="black" points="93.5,-451.5 338.5,-451.5 "/>
<text text-anchor="start" x="101.5" y="-436.3" font-family="Times,serif" font-size="14.00">bool intersects(const Cuboid&lt;U&gt; &amp;other)</text>
</g>
<!-- Vector&#45;&#45;Cuboid -->
<g id="edge2" class="edge">
<title>Vector&#45;&#45;Cuboid</title>
<path fill="none" stroke="black" d="M379.86,-598.8C356.94,-583.16 327.08,-562.78 299.14,-543.72"/>
</g>
<!-- QuadTree -->
<g id="node5" class="node">
<title>QuadTree</title>
<polygon fill="white" stroke="black" points="0,-46.5 0,-345.5 300,-345.5 300,-46.5 0,-46.5"/>
<text text-anchor="middle" x="150" y="-330.3" font-family="Times,serif" font-size="14.00">QuadTree&lt;T,U&gt;</text>
<polyline fill="none" stroke="black" points="0,-322.5 300,-322.5 "/>
<text text-anchor="start" x="8" y="-307.3" font-family="Times,serif" font-size="14.00">Cuboid&lt;U&gt; boundary</text>
<polyline fill="none" stroke="black" points="0,-299.5 300,-299.5 "/>
<text text-anchor="start" x="8" y="-284.3" font-family="Times,serif" font-size="14.00">unsigned int capacity</text>
<polyline fill="none" stroke="black" points="0,-276.5 300,-276.5 "/>
<text text-anchor="start" x="8" y="-261.3" font-family="Times,serif" font-size="14.00">std::vector&lt;Node&lt;T,U&gt;&gt; nodes[capacity]</text>
<polyline fill="none" stroke="black" points="0,-253.5 300,-253.5 "/>
<text text-anchor="start" x="8" y="-238.3" font-family="Times,serif" font-size="14.00">QuadTree * NW</text>
<polyline fill="none" stroke="black" points="0,-230.5 300,-230.5 "/>
<text text-anchor="start" x="8" y="-215.3" font-family="Times,serif" font-size="14.00">QuadTree * NE</text>
<polyline fill="none" stroke="black" points="0,-207.5 300,-207.5 "/>
<text text-anchor="start" x="8" y="-192.3" font-family="Times,serif" font-size="14.00">QuadTree * SE</text>
<polyline fill="none" stroke="black" points="0,-184.5 300,-184.5 "/>
<text text-anchor="start" x="8" y="-169.3" font-family="Times,serif" font-size="14.00">QuadTree * SW</text>
<polyline fill="none" stroke="black" points="0,-161.5 300,-161.5 "/>
<text text-anchor="start" x="8" y="-146.3" font-family="Times,serif" font-size="14.00">bool insert(Node&lt;T,U&gt; node)</text>
<polyline fill="none" stroke="black" points="0,-138.5 300,-138.5 "/>
<text text-anchor="start" x="8" y="-123.3" font-family="Times,serif" font-size="14.00">bool remove(T node)</text>
<polyline fill="none" stroke="black" points="0,-115.5 300,-115.5 "/>
<text text-anchor="start" x="8" y="-100.3" font-family="Times,serif" font-size="14.00">std::vector&lt;Node&lt;T,U&gt;&gt; query(Cuboid&lt;U&gt; range)</text>
<polyline fill="none" stroke="black" points="0,-92.5 300,-92.5 "/>
<text text-anchor="start" x="8" y="-77.3" font-family="Times,serif" font-size="14.00">std::vector&lt;Node&lt;T,U&gt;&gt; query(Sphere&lt;U&gt; range)</text>
<polyline fill="none" stroke="black" points="0,-69.5 300,-69.5 "/>
<text text-anchor="start" x="8" y="-54.3" font-family="Times,serif" font-size="14.00">void subdivide()</text>
</g>
<!-- Element&#45;&#45;QuadTree -->
<g id="edge4" class="edge">
<title>Element&#45;&#45;QuadTree</title>
<path fill="none" stroke="black" d="M385,-451.34C367.48,-433.82 345.9,-411.94 327,-392 312.84,-377.06 298.2,-361.36 283.68,-345.6"/>
</g>
<!-- OcTree -->
<g id="node6" class="node">
<title>OcTree</title>
<polygon fill="white" stroke="black" points="336,-0.5 336,-391.5 636,-391.5 636,-0.5 336,-0.5"/>
<text text-anchor="middle" x="486" y="-376.3" font-family="Times,serif" font-size="14.00">OcTree&lt;T,U&gt;</text>
<polyline fill="none" stroke="black" points="336,-368.5 636,-368.5 "/>
<text text-anchor="start" x="344" y="-353.3" font-family="Times,serif" font-size="14.00">Cuboid&lt;U&gt; boundary</text>
<polyline fill="none" stroke="black" points="336,-345.5 636,-345.5 "/>
<text text-anchor="start" x="344" y="-330.3" font-family="Times,serif" font-size="14.00">unsigned int capacity</text>
<polyline fill="none" stroke="black" points="336,-322.5 636,-322.5 "/>
<text text-anchor="start" x="344" y="-307.3" font-family="Times,serif" font-size="14.00">std::vector&lt;Node&lt;T,U&gt;&gt; nodes[capacity]</text>
<polyline fill="none" stroke="black" points="336,-299.5 636,-299.5 "/>
<text text-anchor="start" x="344" y="-284.3" font-family="Times,serif" font-size="14.00">OcTree * NWN</text>
<polyline fill="none" stroke="black" points="336,-276.5 636,-276.5 "/>
<text text-anchor="start" x="344" y="-261.3" font-family="Times,serif" font-size="14.00">OcTree * NEN</text>
<polyline fill="none" stroke="black" points="336,-253.5 636,-253.5 "/>
<text text-anchor="start" x="344" y="-238.3" font-family="Times,serif" font-size="14.00">OcTree * SEN</text>
<polyline fill="none" stroke="black" points="336,-230.5 636,-230.5 "/>
<text text-anchor="start" x="344" y="-215.3" font-family="Times,serif" font-size="14.00">OcTree * SWN</text>
<polyline fill="none" stroke="black" points="336,-207.5 636,-207.5 "/>
<text text-anchor="start" x="344" y="-192.3" font-family="Times,serif" font-size="14.00">OcTree * NWS</text>
<polyline fill="none" stroke="black" points="336,-184.5 636,-184.5 "/>
<text text-anchor="start" x="344" y="-169.3" font-family="Times,serif" font-size="14.00">OcTree * NES</text>
<polyline fill="none" stroke="black" points="336,-161.5 636,-161.5 "/>
<text text-anchor="start" x="344" y="-146.3" font-family="Times,serif" font-size="14.00">OcTree * SES</text>
<polyline fill="none" stroke="black" points="336,-138.5 636,-138.5 "/>
<text text-anchor="start" x="344" y="-123.3" font-family="Times,serif" font-size="14.00">OcTree * SWS</text>
<polyline fill="none" stroke="black" points="336,-115.5 636,-115.5 "/>
<text text-anchor="start" x="344" y="-100.3" font-family="Times,serif" font-size="14.00">bool insert(Node&lt;T,U&gt; node)</text>
<polyline fill="none" stroke="black" points="336,-92.5 636,-92.5 "/>
<text text-anchor="start" x="344" y="-77.3" font-family="Times,serif" font-size="14.00">bool remove(T node)</text>
<polyline fill="none" stroke="black" points="336,-69.5 636,-69.5 "/>
<text text-anchor="start" x="344" y="-54.3" font-family="Times,serif" font-size="14.00">std::vector&lt;Node&lt;T,U&gt;&gt; query(Cuboid&lt;U&gt; range)</text>
<polyline fill="none" stroke="black" points="336,-46.5 636,-46.5 "/>
<text text-anchor="start" x="344" y="-31.3" font-family="Times,serif" font-size="14.00">std::vector&lt;Node&lt;T,U&gt;&gt; query(Sphere&lt;U&gt; range)</text>
<polyline fill="none" stroke="black" points="336,-23.5 636,-23.5 "/>
<text text-anchor="start" x="344" y="-8.3" font-family="Times,serif" font-size="14.00">void subdivide()</text>
</g>
<!-- Element&#45;&#45;OcTree -->
<g id="edge5" class="edge">
<title>Element&#45;&#45;OcTree</title>
<path fill="none" stroke="black" d="M426.82,-451.4C430.58,-435.22 435.42,-414.4 440.72,-391.66"/>
</g>
<!-- Cuboid&#45;&#45;QuadTree -->
<g id="edge6" class="edge">
<title>Cuboid&#45;&#45;QuadTree</title>
<path fill="none" stroke="black" d="M203.04,-428.44C197.54,-404.44 190.84,-375.24 184.08,-345.76"/>
</g>
<!-- Cuboid&#45;&#45;OcTree -->
<g id="edge7" class="edge">
<title>Cuboid&#45;&#45;OcTree</title>
<path fill="none" stroke="black" d="M287.66,-428.4C301.14,-416.8 314.82,-404.34 327,-392 329.92,-389.04 332.84,-386.04 335.74,-383"/>
</g>
<!-- QuadTree&#45;&#45;QuadTree -->
<g id="edge8" class="edge">
<title>QuadTree&#45;&#45;QuadTree</title>
<path fill="none" stroke="black" d="M300.16,-236.36C311.22,-227.3 318,-213.84 318,-196 318,-178.16 311.22,-164.7 300.16,-155.64"/>
</g>
<!-- OcTree&#45;&#45;OcTree -->
<g id="edge9" class="edge">
<title>OcTree&#45;&#45;OcTree</title>
<path fill="none" stroke="black" d="M636.16,-236.36C647.22,-227.3 654,-213.84 654,-196 654,-178.16 647.22,-164.7 636.16,-155.64"/>
</g>
</g>
</svg>
