<?xml version="1.0" encoding="UTF-8" standalone="no"?>
<!DOCTYPE svg PUBLIC "-//W3C//DTD SVG 1.1//EN"
 "http://www.w3.org/Graphics/SVG/1.1/DTD/svg11.dtd">
<!-- Generated by graphviz version 2.44.0 ()
 -->
<!-- Title: classes Pages: 1 -->
<svg width="656pt" height="598pt"
 viewBox="0.00 0.00 656.00 598.00" xmlns="http://www.w3.org/2000/svg" xmlns:xlink="http://www.w3.org/1999/xlink">
<g id="graph0" class="graph" transform="scale(1 1) rotate(0) translate(4 594)">
<title>classes</title>
<!-- Element -->
<g id="node1" class="node">
<title>Element</title>
<polygon fill="white" stroke="black" points="136.5,-428.5 136.5,-543.5 238.5,-543.5 238.5,-428.5 136.5,-428.5"/>
<text text-anchor="middle" x="187.5" y="-528.3" font-family="Times,serif" font-size="14.00">Node&lt;T,U&gt;</text>
<polyline fill="none" stroke="black" points="136.5,-520.5 238.5,-520.5 "/>
<text text-anchor="start" x="144.5" y="-505.3" font-family="Times,serif" font-size="14.00">U x</text>
<polyline fill="none" stroke="black" points="136.5,-497.5 238.5,-497.5 "/>
<text text-anchor="start" x="144.5" y="-482.3" font-family="Times,serif" font-size="14.00">U y</text>
<polyline fill="none" stroke="black" points="136.5,-474.5 238.5,-474.5 "/>
<text text-anchor="start" x="144.5" y="-459.3" font-family="Times,serif" font-size="14.00">U z</text>
<polyline fill="none" stroke="black" points="136.5,-451.5 238.5,-451.5 "/>
<text text-anchor="start" x="144.5" y="-436.3" font-family="Times,serif" font-size="14.00">T * data</text>
</g>
<!-- QuadTree -->
<g id="node3" class="node">
<title>QuadTree</title>
<polygon fill="white" stroke="black" points="0,-46.5 0,-299.5 297,-299.5 297,-46.5 0,-46.5"/>
<text text-anchor="middle" x="148.5" y="-284.3" font-family="Times,serif" font-size="14.00">QuadTree&lt;T,U&gt;</text>
<polyline fill="none" stroke="black" points="0,-276.5 297,-276.5 "/>
<text text-anchor="start" x="8" y="-261.3" font-family="Times,serif" font-size="14.00">AABB&lt;U&gt; boundary</text>
<polyline fill="none" stroke="black" points="0,-253.5 297,-253.5 "/>
<text text-anchor="start" x="8" y="-238.3" font-family="Times,serif" font-size="14.00">unsigned int capacity</text>
<polyline fill="none" stroke="black" points="0,-230.5 297,-230.5 "/>
<text text-anchor="start" x="8" y="-215.3" font-family="Times,serif" font-size="14.00">std::vector&lt;Node&gt; nodes[capacity]</text>
<polyline fill="none" stroke="black" points="0,-207.5 297,-207.5 "/>
<text text-anchor="start" x="8" y="-192.3" font-family="Times,serif" font-size="14.00">QuadTree * NW</text>
<polyline fill="none" stroke="black" points="0,-184.5 297,-184.5 "/>
<text text-anchor="start" x="8" y="-169.3" font-family="Times,serif" font-size="14.00">QuadTree * NE</text>
<polyline fill="none" stroke="black" points="0,-161.5 297,-161.5 "/>
<text text-anchor="start" x="8" y="-146.3" font-family="Times,serif" font-size="14.00">QuadTree * SE</text>
<polyline fill="none" stroke="black" points="0,-138.5 297,-138.5 "/>
<text text-anchor="start" x="8" y="-123.3" font-family="Times,serif" font-size="14.00">QuadTree * SW</text>
<polyline fill="none" stroke="black" points="0,-115.5 297,-115.5 "/>
<text text-anchor="start" x="8" y="-100.3" font-family="Times,serif" font-size="14.00">bool insert(Node node)</text>
<polyline fill="none" stroke="black" points="0,-92.5 297,-92.5 "/>
<text text-anchor="start" x="8" y="-77.3" font-family="Times,serif" font-size="14.00">std::vector&lt;Node&gt; query(AABB range)</text>
<polyline fill="none" stroke="black" points="0,-69.5 297,-69.5 "/>
<text text-anchor="start" x="8" y="-54.3" font-family="Times,serif" font-size="14.00">void subdivide()</text>
</g>
<!-- Element&#45;&#45;QuadTree -->
<g id="edge1" class="edge">
<title>Element&#45;&#45;QuadTree</title>
<path fill="none" stroke="black" d="M180.39,-428.32C175.88,-392.32 169.85,-344.24 164.25,-299.59"/>
</g>
<!-- OcTree -->
<g id="node4" class="node">
<title>OcTree</title>
<polygon fill="white" stroke="black" points="333,-0.5 333,-345.5 630,-345.5 630,-0.5 333,-0.5"/>
<text text-anchor="middle" x="481.5" y="-330.3" font-family="Times,serif" font-size="14.00">OcTree&lt;T,U&gt;</text>
<polyline fill="none" stroke="black" points="333,-322.5 630,-322.5 "/>
<text text-anchor="start" x="341" y="-307.3" font-family="Times,serif" font-size="14.00">AABB&lt;U&gt; boundary</text>
<polyline fill="none" stroke="black" points="333,-299.5 630,-299.5 "/>
<text text-anchor="start" x="341" y="-284.3" font-family="Times,serif" font-size="14.00">unsigned int capacity</text>
<polyline fill="none" stroke="black" points="333,-276.5 630,-276.5 "/>
<text text-anchor="start" x="341" y="-261.3" font-family="Times,serif" font-size="14.00">std::vector&lt;Node&gt; nodes[capacity]</text>
<polyline fill="none" stroke="black" points="333,-253.5 630,-253.5 "/>
<text text-anchor="start" x="341" y="-238.3" font-family="Times,serif" font-size="14.00">OcTree * NWN</text>
<polyline fill="none" stroke="black" points="333,-230.5 630,-230.5 "/>
<text text-anchor="start" x="341" y="-215.3" font-family="Times,serif" font-size="14.00">OcTree * NEN</text>
<polyline fill="none" stroke="black" points="333,-207.5 630,-207.5 "/>
<text text-anchor="start" x="341" y="-192.3" font-family="Times,serif" font-size="14.00">OcTree * SEN</text>
<polyline fill="none" stroke="black" points="333,-184.5 630,-184.5 "/>
<text text-anchor="start" x="341" y="-169.3" font-family="Times,serif" font-size="14.00">OcTree * SWN</text>
<polyline fill="none" stroke="black" points="333,-161.5 630,-161.5 "/>
<text text-anchor="start" x="341" y="-146.3" font-family="Times,serif" font-size="14.00">OcTree * NWS</text>
<polyline fill="none" stroke="black" points="333,-138.5 630,-138.5 "/>
<text text-anchor="start" x="341" y="-123.3" font-family="Times,serif" font-size="14.00">OcTree * NES</text>
<polyline fill="none" stroke="black" points="333,-115.5 630,-115.5 "/>
<text text-anchor="start" x="341" y="-100.3" font-family="Times,serif" font-size="14.00">OcTree * SES</text>
<polyline fill="none" stroke="black" points="333,-92.5 630,-92.5 "/>
<text text-anchor="start" x="341" y="-77.3" font-family="Times,serif" font-size="14.00">OcTree * SWS</text>
<polyline fill="none" stroke="black" points="333,-69.5 630,-69.5 "/>
<text text-anchor="start" x="341" y="-54.3" font-family="Times,serif" font-size="14.00">bool insert(Node node)</text>
<polyline fill="none" stroke="black" points="333,-46.5 630,-46.5 "/>
<text text-anchor="start" x="341" y="-31.3" font-family="Times,serif" font-size="14.00">std::vector&lt;Node&gt; query(AABB range)</text>
<polyline fill="none" stroke="black" points="333,-23.5 630,-23.5 "/>
<text text-anchor="start" x="341" y="-8.3" font-family="Times,serif" font-size="14.00">void subdivide()</text>
</g>
<!-- Element&#45;&#45;OcTree -->
<g id="edge2" class="edge">
<title>Element&#45;&#45;OcTree</title>
<path fill="none" stroke="black" d="M238.72,-433.97C264.67,-407.89 296.52,-375.5 324.5,-346 327.28,-343.07 330.09,-340.1 332.91,-337.11"/>
</g>
<!-- AABB -->
<g id="node2" class="node">
<title>AABB</title>
<polygon fill="white" stroke="black" points="334.5,-382.5 334.5,-589.5 550.5,-589.5 550.5,-382.5 334.5,-382.5"/>
<text text-anchor="middle" x="442.5" y="-574.3" font-family="Times,serif" font-size="14.00">AABB&lt;U&gt;</text>
<polyline fill="none" stroke="black" points="334.5,-566.5 550.5,-566.5 "/>
<text text-anchor="start" x="342.5" y="-551.3" font-family="Times,serif" font-size="14.00">U x</text>
<polyline fill="none" stroke="black" points="334.5,-543.5 550.5,-543.5 "/>
<text text-anchor="start" x="342.5" y="-528.3" font-family="Times,serif" font-size="14.00">U y</text>
<polyline fill="none" stroke="black" points="334.5,-520.5 550.5,-520.5 "/>
<text text-anchor="start" x="342.5" y="-505.3" font-family="Times,serif" font-size="14.00">U z</text>
<polyline fill="none" stroke="black" points="334.5,-497.5 550.5,-497.5 "/>
<text text-anchor="start" x="342.5" y="-482.3" font-family="Times,serif" font-size="14.00">U w</text>
<polyline fill="none" stroke="black" points="334.5,-474.5 550.5,-474.5 "/>
<text text-anchor="start" x="342.5" y="-459.3" font-family="Times,serif" font-size="14.00">U h</text>
<polyline fill="none" stroke="black" points="334.5,-451.5 550.5,-451.5 "/>
<text text-anchor="start" x="342.5" y="-436.3" font-family="Times,serif" font-size="14.00">U d</text>
<polyline fill="none" stroke="black" points="334.5,-428.5 550.5,-428.5 "/>
<text text-anchor="start" x="342.5" y="-413.3" font-family="Times,serif" font-size="14.00">bool contains(Node node)</text>
<polyline fill="none" stroke="black" points="334.5,-405.5 550.5,-405.5 "/>
<text text-anchor="start" x="342.5" y="-390.3" font-family="Times,serif" font-size="14.00">bool intersects(AABB other)</text>
</g>
<!-- AABB&#45;&#45;QuadTree -->
<g id="edge3" class="edge">
<title>AABB&#45;&#45;QuadTree</title>
<path fill="none" stroke="black" d="M345.42,-382.31C320.41,-355.85 293.22,-327.09 267.25,-299.62"/>
</g>
<!-- AABB&#45;&#45;OcTree -->
<g id="edge4" class="edge">
<title>AABB&#45;&#45;OcTree</title>
<path fill="none" stroke="black" d="M455.38,-382.31C456.86,-370.45 458.41,-358.13 459.97,-345.67"/>
</g>
<!-- QuadTree&#45;&#45;QuadTree -->
<g id="edge5" class="edge">
<title>QuadTree&#45;&#45;QuadTree</title>
<path fill="none" stroke="black" d="M297.05,-216.65C308.17,-206.9 315,-192.35 315,-173 315,-153.65 308.17,-139.1 297.05,-129.35"/>
</g>
<!-- OcTree&#45;&#45;OcTree -->
<g id="edge6" class="edge">
<title>OcTree&#45;&#45;OcTree</title>
<path fill="none" stroke="black" d="M630.05,-216.65C641.17,-206.9 648,-192.35 648,-173 648,-153.65 641.17,-139.1 630.05,-129.35"/>
</g>
</g>
</svg>
