<?xml version="1.0" encoding="UTF-8" standalone="no"?>
<!DOCTYPE svg PUBLIC "-//W3C//DTD SVG 1.1//EN"
 "http://www.w3.org/Graphics/SVG/1.1/DTD/svg11.dtd">
<!-- Generated by graphviz version 2.44.0 ()
 -->
<!-- Title: classes Pages: 1 -->
<svg width="989pt" height="598pt"
 viewBox="0.00 0.00 989.00 598.00" xmlns="http://www.w3.org/2000/svg" xmlns:xlink="http://www.w3.org/1999/xlink">
<g id="graph0" class="graph" transform="scale(1 1) rotate(0) translate(4 594)">
<title>classes</title>
<!-- Element -->
<g id="node1" class="node">
<title>Element</title>
<polygon fill="white" stroke="black" points="341.5,-428.5 341.5,-543.5 443.5,-543.5 443.5,-428.5 341.5,-428.5"/>
<text text-anchor="middle" x="392.5" y="-528.3" font-family="Times,serif" font-size="14.00">Node&lt;T,U&gt;</text>
<polyline fill="none" stroke="black" points="341.5,-520.5 443.5,-520.5 "/>
<text text-anchor="start" x="349.5" y="-505.3" font-family="Times,serif" font-size="14.00">U x</text>
<polyline fill="none" stroke="black" points="341.5,-497.5 443.5,-497.5 "/>
<text text-anchor="start" x="349.5" y="-482.3" font-family="Times,serif" font-size="14.00">U y</text>
<polyline fill="none" stroke="black" points="341.5,-474.5 443.5,-474.5 "/>
<text text-anchor="start" x="349.5" y="-459.3" font-family="Times,serif" font-size="14.00">U z</text>
<polyline fill="none" stroke="black" points="341.5,-451.5 443.5,-451.5 "/>
<text text-anchor="start" x="349.5" y="-436.3" font-family="Times,serif" font-size="14.00">T * data</text>
</g>
<!-- LinTree -->
<g id="node3" class="node">
<title>LinTree</title>
<polygon fill="white" stroke="black" points="0,-69.5 0,-276.5 297,-276.5 297,-69.5 0,-69.5"/>
<text text-anchor="middle" x="148.5" y="-261.3" font-family="Times,serif" font-size="14.00">LinTree&lt;T,U&gt;</text>
<polyline fill="none" stroke="black" points="0,-253.5 297,-253.5 "/>
<text text-anchor="start" x="8" y="-238.3" font-family="Times,serif" font-size="14.00">AABB&lt;U&gt; boundary</text>
<polyline fill="none" stroke="black" points="0,-230.5 297,-230.5 "/>
<text text-anchor="start" x="8" y="-215.3" font-family="Times,serif" font-size="14.00">unsigned int capacity</text>
<polyline fill="none" stroke="black" points="0,-207.5 297,-207.5 "/>
<text text-anchor="start" x="8" y="-192.3" font-family="Times,serif" font-size="14.00">std::vector&lt;Node&gt; nodes[capacity]</text>
<polyline fill="none" stroke="black" points="0,-184.5 297,-184.5 "/>
<text text-anchor="start" x="8" y="-169.3" font-family="Times,serif" font-size="14.00">LinTree * W</text>
<polyline fill="none" stroke="black" points="0,-161.5 297,-161.5 "/>
<text text-anchor="start" x="8" y="-146.3" font-family="Times,serif" font-size="14.00">LinTree * E</text>
<polyline fill="none" stroke="black" points="0,-138.5 297,-138.5 "/>
<text text-anchor="start" x="8" y="-123.3" font-family="Times,serif" font-size="14.00">bool insert(Node node)</text>
<polyline fill="none" stroke="black" points="0,-115.5 297,-115.5 "/>
<text text-anchor="start" x="8" y="-100.3" font-family="Times,serif" font-size="14.00">std::vector&lt;Node&gt; query(AABB range)</text>
<polyline fill="none" stroke="black" points="0,-92.5 297,-92.5 "/>
<text text-anchor="start" x="8" y="-77.3" font-family="Times,serif" font-size="14.00">void subdivide()</text>
</g>
<!-- Element&#45;&#45;LinTree -->
<g id="edge1" class="edge">
<title>Element&#45;&#45;LinTree</title>
<path fill="none" stroke="black" d="M348.03,-428.32C314.83,-386.01 268.56,-327.03 228.94,-276.52"/>
</g>
<!-- QuadTree -->
<g id="node4" class="node">
<title>QuadTree</title>
<polygon fill="white" stroke="black" points="333,-46.5 333,-299.5 630,-299.5 630,-46.5 333,-46.5"/>
<text text-anchor="middle" x="481.5" y="-284.3" font-family="Times,serif" font-size="14.00">QuadTree&lt;T,U&gt;</text>
<polyline fill="none" stroke="black" points="333,-276.5 630,-276.5 "/>
<text text-anchor="start" x="341" y="-261.3" font-family="Times,serif" font-size="14.00">AABB&lt;U&gt; boundary</text>
<polyline fill="none" stroke="black" points="333,-253.5 630,-253.5 "/>
<text text-anchor="start" x="341" y="-238.3" font-family="Times,serif" font-size="14.00">unsigned int capacity</text>
<polyline fill="none" stroke="black" points="333,-230.5 630,-230.5 "/>
<text text-anchor="start" x="341" y="-215.3" font-family="Times,serif" font-size="14.00">std::vector&lt;Node&gt; nodes[capacity]</text>
<polyline fill="none" stroke="black" points="333,-207.5 630,-207.5 "/>
<text text-anchor="start" x="341" y="-192.3" font-family="Times,serif" font-size="14.00">QuadTree * NW</text>
<polyline fill="none" stroke="black" points="333,-184.5 630,-184.5 "/>
<text text-anchor="start" x="341" y="-169.3" font-family="Times,serif" font-size="14.00">QuadTree * NE</text>
<polyline fill="none" stroke="black" points="333,-161.5 630,-161.5 "/>
<text text-anchor="start" x="341" y="-146.3" font-family="Times,serif" font-size="14.00">QuadTree * SE</text>
<polyline fill="none" stroke="black" points="333,-138.5 630,-138.5 "/>
<text text-anchor="start" x="341" y="-123.3" font-family="Times,serif" font-size="14.00">QuadTree * SW</text>
<polyline fill="none" stroke="black" points="333,-115.5 630,-115.5 "/>
<text text-anchor="start" x="341" y="-100.3" font-family="Times,serif" font-size="14.00">bool insert(Node node)</text>
<polyline fill="none" stroke="black" points="333,-92.5 630,-92.5 "/>
<text text-anchor="start" x="341" y="-77.3" font-family="Times,serif" font-size="14.00">std::vector&lt;Node&gt; query(AABB range)</text>
<polyline fill="none" stroke="black" points="333,-69.5 630,-69.5 "/>
<text text-anchor="start" x="341" y="-54.3" font-family="Times,serif" font-size="14.00">void subdivide()</text>
</g>
<!-- Element&#45;&#45;QuadTree -->
<g id="edge2" class="edge">
<title>Element&#45;&#45;QuadTree</title>
<path fill="none" stroke="black" d="M408.72,-428.32C419.02,-392.32 432.78,-344.24 445.56,-299.59"/>
</g>
<!-- OcTree -->
<g id="node5" class="node">
<title>OcTree</title>
<polygon fill="white" stroke="black" points="666,-0.5 666,-345.5 963,-345.5 963,-0.5 666,-0.5"/>
<text text-anchor="middle" x="814.5" y="-330.3" font-family="Times,serif" font-size="14.00">OcTree&lt;T,U&gt;</text>
<polyline fill="none" stroke="black" points="666,-322.5 963,-322.5 "/>
<text text-anchor="start" x="674" y="-307.3" font-family="Times,serif" font-size="14.00">AABB&lt;U&gt; boundary</text>
<polyline fill="none" stroke="black" points="666,-299.5 963,-299.5 "/>
<text text-anchor="start" x="674" y="-284.3" font-family="Times,serif" font-size="14.00">unsigned int capacity</text>
<polyline fill="none" stroke="black" points="666,-276.5 963,-276.5 "/>
<text text-anchor="start" x="674" y="-261.3" font-family="Times,serif" font-size="14.00">std::vector&lt;Node&gt; nodes[capacity]</text>
<polyline fill="none" stroke="black" points="666,-253.5 963,-253.5 "/>
<text text-anchor="start" x="674" y="-238.3" font-family="Times,serif" font-size="14.00">OcTree * NWN</text>
<polyline fill="none" stroke="black" points="666,-230.5 963,-230.5 "/>
<text text-anchor="start" x="674" y="-215.3" font-family="Times,serif" font-size="14.00">OcTree * NEN</text>
<polyline fill="none" stroke="black" points="666,-207.5 963,-207.5 "/>
<text text-anchor="start" x="674" y="-192.3" font-family="Times,serif" font-size="14.00">OcTree * SEN</text>
<polyline fill="none" stroke="black" points="666,-184.5 963,-184.5 "/>
<text text-anchor="start" x="674" y="-169.3" font-family="Times,serif" font-size="14.00">OcTree * SWN</text>
<polyline fill="none" stroke="black" points="666,-161.5 963,-161.5 "/>
<text text-anchor="start" x="674" y="-146.3" font-family="Times,serif" font-size="14.00">OcTree * NWS</text>
<polyline fill="none" stroke="black" points="666,-138.5 963,-138.5 "/>
<text text-anchor="start" x="674" y="-123.3" font-family="Times,serif" font-size="14.00">OcTree * NES</text>
<polyline fill="none" stroke="black" points="666,-115.5 963,-115.5 "/>
<text text-anchor="start" x="674" y="-100.3" font-family="Times,serif" font-size="14.00">OcTree * SES</text>
<polyline fill="none" stroke="black" points="666,-92.5 963,-92.5 "/>
<text text-anchor="start" x="674" y="-77.3" font-family="Times,serif" font-size="14.00">OcTree * SWS</text>
<polyline fill="none" stroke="black" points="666,-69.5 963,-69.5 "/>
<text text-anchor="start" x="674" y="-54.3" font-family="Times,serif" font-size="14.00">bool insert(Node node)</text>
<polyline fill="none" stroke="black" points="666,-46.5 963,-46.5 "/>
<text text-anchor="start" x="674" y="-31.3" font-family="Times,serif" font-size="14.00">std::vector&lt;Node&gt; query(AABB range)</text>
<polyline fill="none" stroke="black" points="666,-23.5 963,-23.5 "/>
<text text-anchor="start" x="674" y="-8.3" font-family="Times,serif" font-size="14.00">void subdivide()</text>
</g>
<!-- Element&#45;&#45;OcTree -->
<g id="edge3" class="edge">
<title>Element&#45;&#45;OcTree</title>
<path fill="none" stroke="black" d="M414.13,-428.44C423.43,-411.04 436.03,-393.48 452.5,-382 528.4,-329.11 576.43,-390.54 657.5,-346 660.33,-344.44 663.15,-342.81 665.93,-341.12"/>
</g>
<!-- AABB -->
<g id="node2" class="node">
<title>AABB</title>
<polygon fill="white" stroke="black" points="461.5,-382.5 461.5,-589.5 677.5,-589.5 677.5,-382.5 461.5,-382.5"/>
<text text-anchor="middle" x="569.5" y="-574.3" font-family="Times,serif" font-size="14.00">AABB&lt;U&gt;</text>
<polyline fill="none" stroke="black" points="461.5,-566.5 677.5,-566.5 "/>
<text text-anchor="start" x="469.5" y="-551.3" font-family="Times,serif" font-size="14.00">U x</text>
<polyline fill="none" stroke="black" points="461.5,-543.5 677.5,-543.5 "/>
<text text-anchor="start" x="469.5" y="-528.3" font-family="Times,serif" font-size="14.00">U y</text>
<polyline fill="none" stroke="black" points="461.5,-520.5 677.5,-520.5 "/>
<text text-anchor="start" x="469.5" y="-505.3" font-family="Times,serif" font-size="14.00">U z</text>
<polyline fill="none" stroke="black" points="461.5,-497.5 677.5,-497.5 "/>
<text text-anchor="start" x="469.5" y="-482.3" font-family="Times,serif" font-size="14.00">U w</text>
<polyline fill="none" stroke="black" points="461.5,-474.5 677.5,-474.5 "/>
<text text-anchor="start" x="469.5" y="-459.3" font-family="Times,serif" font-size="14.00">U h</text>
<polyline fill="none" stroke="black" points="461.5,-451.5 677.5,-451.5 "/>
<text text-anchor="start" x="469.5" y="-436.3" font-family="Times,serif" font-size="14.00">U d</text>
<polyline fill="none" stroke="black" points="461.5,-428.5 677.5,-428.5 "/>
<text text-anchor="start" x="469.5" y="-413.3" font-family="Times,serif" font-size="14.00">bool contains(Node node)</text>
<polyline fill="none" stroke="black" points="461.5,-405.5 677.5,-405.5 "/>
<text text-anchor="start" x="469.5" y="-390.3" font-family="Times,serif" font-size="14.00">bool intersects(AABB other)</text>
</g>
<!-- AABB&#45;&#45;LinTree -->
<g id="edge4" class="edge">
<title>AABB&#45;&#45;LinTree</title>
<path fill="none" stroke="black" d="M461.38,-387.09C458.44,-385.31 455.47,-383.61 452.5,-382 400.18,-353.62 375.02,-375.81 323.5,-346 291.79,-327.66 261.63,-302.22 235.57,-276.54"/>
</g>
<!-- AABB&#45;&#45;QuadTree -->
<g id="edge5" class="edge">
<title>AABB&#45;&#45;QuadTree</title>
<path fill="none" stroke="black" d="M540.44,-382.31C532.96,-355.85 524.82,-327.09 517.05,-299.62"/>
</g>
<!-- AABB&#45;&#45;OcTree -->
<g id="edge6" class="edge">
<title>AABB&#45;&#45;OcTree</title>
<path fill="none" stroke="black" d="M650.4,-382.31C659.74,-370.45 669.44,-358.13 679.26,-345.67"/>
</g>
<!-- LinTree&#45;&#45;LinTree -->
<g id="edge7" class="edge">
<title>LinTree&#45;&#45;LinTree</title>
<path fill="none" stroke="black" d="M297.05,-216.65C308.17,-206.9 315,-192.35 315,-173 315,-153.65 308.17,-139.1 297.05,-129.35"/>
</g>
<!-- QuadTree&#45;&#45;QuadTree -->
<g id="edge8" class="edge">
<title>QuadTree&#45;&#45;QuadTree</title>
<path fill="none" stroke="black" d="M630.05,-216.65C641.17,-206.9 648,-192.35 648,-173 648,-153.65 641.17,-139.1 630.05,-129.35"/>
</g>
<!-- OcTree&#45;&#45;OcTree -->
<g id="edge9" class="edge">
<title>OcTree&#45;&#45;OcTree</title>
<path fill="none" stroke="black" d="M963.05,-216.65C974.17,-206.9 981,-192.35 981,-173 981,-153.65 974.17,-139.1 963.05,-129.35"/>
</g>
</g>
</svg>
