<?xml version="1.0" encoding="UTF-8" standalone="no"?>
<!DOCTYPE svg PUBLIC "-//W3C//DTD SVG 1.1//EN"
 "http://www.w3.org/Graphics/SVG/1.1/DTD/svg11.dtd">
<!-- Generated by graphviz version 2.42.3 ()
 -->
<!-- Title: classes Pages: 1 -->
<svg width="655pt" height="658pt"
 viewBox="0.00 0.00 654.50 658.00" xmlns="http://www.w3.org/2000/svg" xmlns:xlink="http://www.w3.org/1999/xlink">
<g id="graph0" class="graph" transform="scale(1 1) rotate(0) translate(4 654)">
<title>classes</title>
<!-- Vector -->
<g id="node1" class="node">
<title>Vector</title>
<polygon fill="white" stroke="black" points="310,-557.5 310,-649.5 388,-649.5 388,-557.5 310,-557.5"/>
<text text-anchor="middle" x="349" y="-634.3" font-family="Times,serif" font-size="14.00">Vector&lt;U&gt;</text>
<polyline fill="none" stroke="black" points="310,-626.5 388,-626.5 "/>
<text text-anchor="start" x="318" y="-611.3" font-family="Times,serif" font-size="14.00">U x</text>
<polyline fill="none" stroke="black" points="310,-603.5 388,-603.5 "/>
<text text-anchor="start" x="318" y="-588.3" font-family="Times,serif" font-size="14.00">U y</text>
<polyline fill="none" stroke="black" points="310,-580.5 388,-580.5 "/>
<text text-anchor="start" x="318" y="-565.3" font-family="Times,serif" font-size="14.00">U z</text>
</g>
<!-- Element -->
<g id="node2" class="node">
<title>Element</title>
<polygon fill="white" stroke="black" points="286.5,-428.5 286.5,-497.5 411.5,-497.5 411.5,-428.5 286.5,-428.5"/>
<text text-anchor="middle" x="349" y="-482.3" font-family="Times,serif" font-size="14.00">Node&lt;T,U&gt;</text>
<polyline fill="none" stroke="black" points="286.5,-474.5 411.5,-474.5 "/>
<text text-anchor="start" x="294.5" y="-459.3" font-family="Times,serif" font-size="14.00">Vector&lt;U&gt; position</text>
<polyline fill="none" stroke="black" points="286.5,-451.5 411.5,-451.5 "/>
<text text-anchor="start" x="294.5" y="-436.3" font-family="Times,serif" font-size="14.00">T * data</text>
</g>
<!-- Vector&#45;&#45;Element -->
<g id="edge1" class="edge">
<title>Vector&#45;&#45;Element</title>
<path fill="none" stroke="black" d="M349,-557.14C349,-537.74 349,-515.48 349,-497.58"/>
</g>
<!-- Sphere -->
<g id="node3" class="node">
<title>Sphere</title>
<polygon fill="white" stroke="black" points="429.5,-405.5 429.5,-520.5 646.5,-520.5 646.5,-405.5 429.5,-405.5"/>
<text text-anchor="middle" x="538" y="-505.3" font-family="Times,serif" font-size="14.00">Sphere&lt;U&gt;</text>
<polyline fill="none" stroke="black" points="429.5,-497.5 646.5,-497.5 "/>
<text text-anchor="start" x="437.5" y="-482.3" font-family="Times,serif" font-size="14.00">Vector&lt;U&gt; position</text>
<polyline fill="none" stroke="black" points="429.5,-474.5 646.5,-474.5 "/>
<text text-anchor="start" x="437.5" y="-459.3" font-family="Times,serif" font-size="14.00">U radius</text>
<polyline fill="none" stroke="black" points="429.5,-451.5 646.5,-451.5 "/>
<text text-anchor="start" x="437.5" y="-436.3" font-family="Times,serif" font-size="14.00">bool contains(const Node &amp;node)</text>
<polyline fill="none" stroke="black" points="429.5,-428.5 646.5,-428.5 "/>
<text text-anchor="start" x="437.5" y="-413.3" font-family="Times,serif" font-size="14.00">bool intersects(const Sphere &amp;other)</text>
</g>
<!-- Vector&#45;&#45;Sphere -->
<g id="edge3" class="edge">
<title>Vector&#45;&#45;Sphere</title>
<path fill="none" stroke="black" d="M388.16,-573.8C409.14,-558.44 435.72,-538.94 460.68,-520.66"/>
</g>
<!-- Cuboid -->
<g id="node4" class="node">
<title>Cuboid</title>
<polygon fill="white" stroke="black" points="49.5,-405.5 49.5,-520.5 268.5,-520.5 268.5,-405.5 49.5,-405.5"/>
<text text-anchor="middle" x="159" y="-505.3" font-family="Times,serif" font-size="14.00">Cuboid&lt;U&gt;</text>
<polyline fill="none" stroke="black" points="49.5,-497.5 268.5,-497.5 "/>
<text text-anchor="start" x="57.5" y="-482.3" font-family="Times,serif" font-size="14.00">Vector&lt;U&gt; position</text>
<polyline fill="none" stroke="black" points="49.5,-474.5 268.5,-474.5 "/>
<text text-anchor="start" x="57.5" y="-459.3" font-family="Times,serif" font-size="14.00">Vector&lt;U&gt; dimensions</text>
<polyline fill="none" stroke="black" points="49.5,-451.5 268.5,-451.5 "/>
<text text-anchor="start" x="57.5" y="-436.3" font-family="Times,serif" font-size="14.00">bool contains(const Node &amp;node)</text>
<polyline fill="none" stroke="black" points="49.5,-428.5 268.5,-428.5 "/>
<text text-anchor="start" x="57.5" y="-413.3" font-family="Times,serif" font-size="14.00">bool intersects(const Cuboid &amp;other)</text>
</g>
<!-- Vector&#45;&#45;Cuboid -->
<g id="edge2" class="edge">
<title>Vector&#45;&#45;Cuboid</title>
<path fill="none" stroke="black" d="M309.64,-573.8C288.54,-558.44 261.82,-538.94 236.74,-520.66"/>
</g>
<!-- QuadTree -->
<g id="node5" class="node">
<title>QuadTree</title>
<polygon fill="white" stroke="black" points="0,-46.5 0,-322.5 236,-322.5 236,-46.5 0,-46.5"/>
<text text-anchor="middle" x="118" y="-307.3" font-family="Times,serif" font-size="14.00">QuadTree&lt;T,U&gt;</text>
<polyline fill="none" stroke="black" points="0,-299.5 236,-299.5 "/>
<text text-anchor="start" x="8" y="-284.3" font-family="Times,serif" font-size="14.00">Cuboid&lt;U&gt; boundary</text>
<polyline fill="none" stroke="black" points="0,-276.5 236,-276.5 "/>
<text text-anchor="start" x="8" y="-261.3" font-family="Times,serif" font-size="14.00">unsigned int capacity</text>
<polyline fill="none" stroke="black" points="0,-253.5 236,-253.5 "/>
<text text-anchor="start" x="8" y="-238.3" font-family="Times,serif" font-size="14.00">std::vector&lt;Node&gt; nodes[capacity]</text>
<polyline fill="none" stroke="black" points="0,-230.5 236,-230.5 "/>
<text text-anchor="start" x="8" y="-215.3" font-family="Times,serif" font-size="14.00">QuadTree * NW</text>
<polyline fill="none" stroke="black" points="0,-207.5 236,-207.5 "/>
<text text-anchor="start" x="8" y="-192.3" font-family="Times,serif" font-size="14.00">QuadTree * NE</text>
<polyline fill="none" stroke="black" points="0,-184.5 236,-184.5 "/>
<text text-anchor="start" x="8" y="-169.3" font-family="Times,serif" font-size="14.00">QuadTree * SE</text>
<polyline fill="none" stroke="black" points="0,-161.5 236,-161.5 "/>
<text text-anchor="start" x="8" y="-146.3" font-family="Times,serif" font-size="14.00">QuadTree * SW</text>
<polyline fill="none" stroke="black" points="0,-138.5 236,-138.5 "/>
<text text-anchor="start" x="8" y="-123.3" font-family="Times,serif" font-size="14.00">bool insert(Node node)</text>
<polyline fill="none" stroke="black" points="0,-115.5 236,-115.5 "/>
<text text-anchor="start" x="8" y="-100.3" font-family="Times,serif" font-size="14.00">std::vector&lt;Node&gt; query(Cuboid range)</text>
<polyline fill="none" stroke="black" points="0,-92.5 236,-92.5 "/>
<text text-anchor="start" x="8" y="-77.3" font-family="Times,serif" font-size="14.00">std::vector&lt;Node&gt; query(Sphere range)</text>
<polyline fill="none" stroke="black" points="0,-69.5 236,-69.5 "/>
<text text-anchor="start" x="8" y="-54.3" font-family="Times,serif" font-size="14.00">void subdivide()</text>
</g>
<!-- Element&#45;&#45;QuadTree -->
<g id="edge4" class="edge">
<title>Element&#45;&#45;QuadTree</title>
<path fill="none" stroke="black" d="M316.5,-428.12C300.12,-410.74 280.16,-389.06 263,-369 250.34,-354.18 237.32,-338.48 224.54,-322.74"/>
</g>
<!-- OcTree -->
<g id="node6" class="node">
<title>OcTree</title>
<polygon fill="white" stroke="black" points="272,-0.5 272,-368.5 508,-368.5 508,-0.5 272,-0.5"/>
<text text-anchor="middle" x="390" y="-353.3" font-family="Times,serif" font-size="14.00">OcTree&lt;T,U&gt;</text>
<polyline fill="none" stroke="black" points="272,-345.5 508,-345.5 "/>
<text text-anchor="start" x="280" y="-330.3" font-family="Times,serif" font-size="14.00">Cuboid&lt;U&gt; boundary</text>
<polyline fill="none" stroke="black" points="272,-322.5 508,-322.5 "/>
<text text-anchor="start" x="280" y="-307.3" font-family="Times,serif" font-size="14.00">unsigned int capacity</text>
<polyline fill="none" stroke="black" points="272,-299.5 508,-299.5 "/>
<text text-anchor="start" x="280" y="-284.3" font-family="Times,serif" font-size="14.00">std::vector&lt;Node&gt; nodes[capacity]</text>
<polyline fill="none" stroke="black" points="272,-276.5 508,-276.5 "/>
<text text-anchor="start" x="280" y="-261.3" font-family="Times,serif" font-size="14.00">OcTree * NWN</text>
<polyline fill="none" stroke="black" points="272,-253.5 508,-253.5 "/>
<text text-anchor="start" x="280" y="-238.3" font-family="Times,serif" font-size="14.00">OcTree * NEN</text>
<polyline fill="none" stroke="black" points="272,-230.5 508,-230.5 "/>
<text text-anchor="start" x="280" y="-215.3" font-family="Times,serif" font-size="14.00">OcTree * SEN</text>
<polyline fill="none" stroke="black" points="272,-207.5 508,-207.5 "/>
<text text-anchor="start" x="280" y="-192.3" font-family="Times,serif" font-size="14.00">OcTree * SWN</text>
<polyline fill="none" stroke="black" points="272,-184.5 508,-184.5 "/>
<text text-anchor="start" x="280" y="-169.3" font-family="Times,serif" font-size="14.00">OcTree * NWS</text>
<polyline fill="none" stroke="black" points="272,-161.5 508,-161.5 "/>
<text text-anchor="start" x="280" y="-146.3" font-family="Times,serif" font-size="14.00">OcTree * NES</text>
<polyline fill="none" stroke="black" points="272,-138.5 508,-138.5 "/>
<text text-anchor="start" x="280" y="-123.3" font-family="Times,serif" font-size="14.00">OcTree * SES</text>
<polyline fill="none" stroke="black" points="272,-115.5 508,-115.5 "/>
<text text-anchor="start" x="280" y="-100.3" font-family="Times,serif" font-size="14.00">OcTree * SWS</text>
<polyline fill="none" stroke="black" points="272,-92.5 508,-92.5 "/>
<text text-anchor="start" x="280" y="-77.3" font-family="Times,serif" font-size="14.00">bool insert(Node node)</text>
<polyline fill="none" stroke="black" points="272,-69.5 508,-69.5 "/>
<text text-anchor="start" x="280" y="-54.3" font-family="Times,serif" font-size="14.00">std::vector&lt;Node&gt; query(Cuboid range)</text>
<polyline fill="none" stroke="black" points="272,-46.5 508,-46.5 "/>
<text text-anchor="start" x="280" y="-31.3" font-family="Times,serif" font-size="14.00">std::vector&lt;Node&gt; query(Sphere range)</text>
<polyline fill="none" stroke="black" points="272,-23.5 508,-23.5 "/>
<text text-anchor="start" x="280" y="-8.3" font-family="Times,serif" font-size="14.00">void subdivide()</text>
</g>
<!-- Element&#45;&#45;OcTree -->
<g id="edge5" class="edge">
<title>Element&#45;&#45;OcTree</title>
<path fill="none" stroke="black" d="M353.98,-428.38C356.38,-412.18 359.48,-391.38 362.82,-368.78"/>
</g>
<!-- Cuboid&#45;&#45;QuadTree -->
<g id="edge6" class="edge">
<title>Cuboid&#45;&#45;QuadTree</title>
<path fill="none" stroke="black" d="M150.6,-405.38C147.02,-381.2 142.66,-351.84 138.32,-322.56"/>
</g>
<!-- Cuboid&#45;&#45;OcTree -->
<g id="edge7" class="edge">
<title>Cuboid&#45;&#45;OcTree</title>
<path fill="none" stroke="black" d="M226.98,-405.42C239.46,-393.88 252.02,-381.44 263,-369 265.94,-365.66 268.88,-362.24 271.82,-358.78"/>
</g>
<!-- QuadTree&#45;&#45;QuadTree -->
<g id="edge8" class="edge">
<title>QuadTree&#45;&#45;QuadTree</title>
<path fill="none" stroke="black" d="M236.44,-225.92C247.22,-217.32 254,-203.5 254,-184.5 254,-165.5 247.22,-151.68 236.44,-143.08"/>
</g>
<!-- OcTree&#45;&#45;OcTree -->
<g id="edge9" class="edge">
<title>OcTree&#45;&#45;OcTree</title>
<path fill="none" stroke="black" d="M508.44,-225.92C519.22,-217.32 526,-203.5 526,-184.5 526,-165.5 519.22,-151.68 508.44,-143.08"/>
</g>
</g>
</svg>
